<?xml version="1.0" encoding="UTF-8"?>
<svg id="Capa_2" data-name="Capa 2" xmlns="http://www.w3.org/2000/svg" viewBox="0 0 215.17 191.96">
  <defs>
    <style>
      .cls-1 {
        fill: #fff;
      }

      .cls-2 {
        opacity: .6;
      }

      .cls-3 {
        opacity: .2;
      }

      .cls-4 {
        opacity: .35;
      }

      .cls-5 {
        fill: #b8b8b8;
      }

      .cls-6 {
        fill: #262b5f;
      }

      .cls-7 {
        fill: #f195be;
      }

      .cls-8 {
        fill: #fab72a;
      }

      .cls-9 {
        fill: #290d0e;
      }
    </style>
  </defs>
  <g id="Capa_1-2" data-name="Capa 1">
    <g>
      <g>
        <path class="cls-6" d="m139.18,184.24h59.94c1.45,0,2.62-1.17,2.62-2.62,0-1.45-1.17-2.62-2.62-2.62h-57.81s-2.1-9.95-2.1-9.95l60.2-6.67c1-.11,1.84-.78,2.18-1.72l13.43-37.58c.29-.8.17-1.7-.33-2.39s-1.29-1.11-2.14-1.11h-73.58s-6.16-14.56-6.16-14.56c-.41-.97-1.36-1.6-2.41-1.6l-20.04-.02h0c-1.45,0-2.62,1.17-2.62,2.62,0,1.45,1.17,2.62,2.62,2.63l18.31.02,6.16,14.56c.41.97,1.36,1.6,2.41,1.6h71.59s-11.63,32.54-11.63,32.54l-61.45,6.81c-.74.08-1.4.47-1.84,1.07-.43.6-.59,1.35-.44,2.08l3.14,14.86c.26,1.21,1.33,2.08,2.57,2.08Z"/>
        <circle class="cls-6" cx="184.81" cy="183.8" r="8.16"/>
        <circle class="cls-6" cx="155.36" cy="183.8" r="8.16"/>
      </g>
      <g>
        <path class="cls-1" d="m56.54,155.81c-.45.11-3.68.9-8.11.9-1.31,0-2.72-.07-4.2-.24-9.36-1.11-16.66-5.8-21.1-13.58-3.67-6.42-3.56-13.59-3.46-19.93.02-1,.01-2-.02-2.96-.12-3.53-.58-6.63-1.64-8.2-1.6-2.38-4.48-2.2-6.74-1.9-4.12.53-8.18-.95-9.42-4.91-.33-1.06-.42-2.14-.29-3.18.35-2.83,2.31-5.33,5.2-6.24,1.79-.56,10.68-4.32,21.2,4.98,5.8,5.12,6.68,12.29,6.75,18.78.01,1.32,0,2.61-.03,3.85-.07,4.83-.14,9.4,1.49,12.25,1.69,2.94,4.14,4.56,6.65,5.41,4.59,1.56,9.37.55,10,.41l3.72,14.56Z"/>
        <path class="cls-8" d="m34.62,119.91h0c-8.15-2.93-14.84.55-15.06.67-.12-3.53-.58-6.63-1.64-8.2-1.6-2.38-4.48-2.2-6.74-1.9-4.12.53-8.18-.95-9.42-4.91-.72-2.28-.29-4.66.97-6.49.91-1.34,2.27-2.4,3.94-2.93,1.79-.56,10.68-4.32,21.2,4.98,5.23,4.62,6.46,10.91,6.7,16.86.03.65.04,1.29.05,1.93Z"/>
        <g class="cls-2">
          <path class="cls-1" d="m34.57,117.98c-1.36-4.51-3.47-9.32-6.71-13.17-6.75-8.01-19.74-6.71-25.14-5.74.91-1.34,2.27-2.4,3.94-2.93,1.79-.56,12.9-2.01,21.29,4.41,5.54,4.24,6.37,11.48,6.61,17.43Z"/>
        </g>
        <g class="cls-3">
          <path class="cls-6" d="m56.54,155.81c-.45.11-3.68.9-8.11.9-1.31,0-2.72-.07-4.2-.24-9.36-1.11-16.66-5.8-21.1-13.58-3.67-6.42-3.56-13.59-3.46-19.93.02-1,.01-2-.02-2.96-.12-3.53-.58-6.63-1.64-8.2-1.6-2.38-4.48-2.2-6.74-1.9-4.12.53-8.18-.95-9.42-4.91-.33-1.06-.42-2.14-.29-3.18,1.24.8,3.15,1.4,6.11,1.44,8.94.12,13.91.66,17.5,6.06,3.6,5.41-1.29,21.63,3.86,29.2,1.88,2.77,4.24,4.82,6.47,6.3,3.14,2.09,7.34-.2,7.34-3.97h0c4.59,1.56,9.37.55,10,.41l3.72,14.56Z"/>
        </g>
        <path class="cls-6" d="m48.44,158.21c-1.46,0-2.93-.09-4.38-.25-9.86-1.17-17.54-6.12-22.23-14.33-3.87-6.78-3.76-14.17-3.66-20.69.02-1.07,0-2.01-.02-2.88-.16-4.9-.94-6.75-1.38-7.42-1-1.49-2.77-1.58-5.3-1.25-5.36.69-9.69-1.65-11.04-5.95-1.49-4.74,1.15-9.81,5.89-11.3,2.16-.68,14.95-1.47,22.64,5.29,6.3,5.53,7.19,13.54,7.26,19.9.01,1.38,0,2.71-.03,3.89-.07,4.62-.13,8.99,1.29,11.48,4.19,7.33,13.92,5.35,15.02,5.1.79-.18,1.59.3,1.79,1.09l3.72,14.56c.1.39.04.8-.16,1.14-.2.34-.54.59-.92.69-.62.16-3.97.94-8.47.94ZM13.45,108.21c1.95,0,4.29.48,5.81,2.74,1.13,1.68,1.75,4.62,1.89,8.99.03.92.04,1.91.02,3.03-.09,6.13-.2,13.09,3.26,19.16,4.2,7.35,11.11,11.78,19.98,12.83,1.33.15,2.68.23,4.03.23,2.67,0,4.88-.29,6.26-.54l-2.98-11.69c-3.59.51-12.46.88-16.85-6.8-1.83-3.21-1.76-7.97-1.69-13.02.02-1.16.04-2.48.03-3.82-.06-5.73-.83-12.92-6.24-17.67-6.62-5.81-18.18-5.17-19.76-4.68-3.16,1-4.92,4.38-3.93,7.53,1.08,3.46,4.74,4.27,7.79,3.87.62-.08,1.45-.19,2.37-.19Z"/>
        <path class="cls-1" d="m136.81,119.33c-3.79,1.62-6.76-1.35-6.76-1.35l-20.01,1.35c1.19,9.99-.41,18.08-2.08,23.34,0,0,0,0,0,0-1.36,4.28-2.78,6.67-2.78,6.67l1.89,23.25c3.43,1.4,5.07,3.69,5.59,5.93.59,2.52-.24,4.97-1.53,5.97-2.43,1.89-14.6,3.51-22.17.27-7.57-3.24-11.36-19.47-11.36-19.47-5.41,9.73-16.49,7.84-16.49,7.84,0,0,4.6,12.44-4.33,14.06-8.92,1.62-17.85-13.25-18.12-19.74-.07-1.7.62-3.42,1.68-5.03,2.97-4.54,8.87-8.22,8.87-8.22-1.49-6.79-1.76-13.63-1.25-20.22.87-11.36,4.07-21.98,7.37-30.3,1.07-2.7,2.15-5.15,3.16-7.32,2.28-4.85,4.23-8.21,4.99-9.47.22-.36.34-.56.34-.56l38.6,1.35c.22.59.44,1.16.66,1.71,2.67,6.49,5.76,10.01,9.11,11.98,6.06,3.59,12.95,2.13,19.63,4.15,5.1,1.55,7.33,4.39,7.86,7.12.58,2.98-.88,5.82-2.86,6.67Z"/>
        <path class="cls-8" d="m64.87,117.07c-1.77,10.76-8.46,18.61-14.94,17.54-.69-.11-1.35-.32-1.97-.62,1.16-15.05,6.39-28.8,10.53-37.62,5.14,2.61,7.95,11.19,6.38,20.7Z"/>
        <g class="cls-3">
          <path class="cls-6" d="m136.81,119.33c-3.79,1.62-6.76-1.35-6.76-1.35l-20.01,1.35c1.19,9.99-.41,18.08-2.08,23.34,0,0,0,0,0,0-3.81,6.85-12.1,10.58-12.1,10.58,0,0-5.18,12.84-4.2,19.67.98,6.83,4.7,7.5,11.79,7.45,3.2-.02,6.52-.9,9.21-1.85.59,2.52-.24,4.97-1.53,5.97-2.43,1.89-14.6,3.51-22.17.27-7.57-3.24-11.36-19.47-11.36-19.47-5.41,9.73-16.49,7.84-16.49,7.84,0,0,4.6,12.44-4.33,14.06-8.92,1.62-17.85-13.25-18.12-19.74-.07-1.7.62-3.42,1.68-5.03,0,0,3.38,16.93,9.54,15.02,2.93-.91,3.62-3.27,3.54-5.5-.09-2.49,1.64-4.71,4.06-5.3,6.62-1.6,9.18-6.48,10.16-9.68.54-1.77,2.03-3.07,3.85-3.39,14.91-2.62,19.86-12.21,20.37-18.42.25-2.99-1.31-5.83-3.97-7.22-3.47-1.82-8.79-5.32-13.64-11.38-4.51-5.64-12.65-10.06-18.93-12.86,1.07-2.7,2.15-5.15,3.16-7.32,2.28-4.85,4.23-8.21,4.99-9.47l39.6,2.5c2.67,6.49,5.76,10.01,9.11,11.98l-5.11,4.06c6.86,4.62,22.14,6.84,22.14,6.84,4.34,3.03,7.95,2.06,10.46.38.58,2.98-.88,5.82-2.86,6.67Z"/>
        </g>
        <path class="cls-6" d="m55.43,188.82c-2.59,0-5.29-1.08-7.92-3.18-5.85-4.68-10.15-13.3-10.35-18.12-.26-6.22,7.55-12.1,10.36-14.01-1.24-6.16-1.6-12.76-1.07-19.64,1.17-15.24,6.45-29.15,10.67-38.14,2.94-6.27,5.32-10.04,5.42-10.19.29-.45.78-.72,1.32-.7l38.6,1.35c.61.02,1.14.41,1.36.98,5.27,14.23,12.07,14.84,19.94,15.55,2.76.25,5.62.51,8.49,1.38,7.82,2.38,8.93,7.38,9.04,9.42.17,3.13-1.46,6.15-3.89,7.19h0c-3.66,1.57-6.66-.26-7.86-1.19l-17.84,1.21c1.48,15.85-3.77,26.67-4.99,28.95l1.78,21.91c4.41,2.13,5.52,5.51,5.78,7.4.37,2.68-.52,5.37-2.22,6.7-2.9,2.25-15.69,3.89-23.69.47-6.07-2.6-9.78-12.26-11.35-17.35-4.36,5.18-10.47,5.97-13.79,5.97-.02,0-.05,0-.07,0,.63,2.59,1.26,6.99-.58,10.21-1.14,1.99-3,3.24-5.52,3.7-.53.1-1.07.14-1.62.14Zm9.21-100.94c-.81,1.37-2.66,4.61-4.79,9.14-4.11,8.76-9.25,22.31-10.39,37.09-.54,6.97-.13,13.63,1.22,19.78.14.62-.13,1.26-.67,1.6-2.8,1.75-10.03,7.32-9.84,11.91.17,4.07,4.24,11.91,9.22,15.9,2.52,2.01,4.91,2.83,7.12,2.43,1.63-.3,2.76-1.02,3.45-2.22,1.67-2.92.38-8.09-.26-9.84-.18-.5-.09-1.07.26-1.48.34-.41.88-.61,1.41-.52.41.07,10.12,1.57,14.93-7.09.3-.54.91-.84,1.52-.76.61.09,1.11.54,1.26,1.15,1.01,4.31,4.86,16.02,10.49,18.43,7.29,3.12,18.84,1.34,20.66-.08.71-.56,1.34-2.12,1.09-3.91-.19-1.37-1.06-3.89-4.79-5.41-.52-.21-.88-.7-.93-1.27l-1.89-23.25c-.03-.31.05-.62.2-.89.07-.11,6.74-11.72,4.67-29.07-.05-.41.07-.82.34-1.14.26-.32.64-.51,1.06-.54l20.01-1.35c.43-.03.86.13,1.16.44.09.08,2.33,2.22,5.11,1.03h0c1.11-.47,2.18-2.2,2.07-4.26-.16-2.98-2.68-5.43-6.92-6.71-2.57-.78-5.27-1.02-7.88-1.26-7.98-.72-16.23-1.46-22.13-16.56l-36.72-1.29Zm72.18,31.45h0,0Z"/>
        <path class="cls-6" d="m106.61,174.02c-2.58-.92-5.75-1.04-8.07.59,0,0-.25.17-.25.17-.15.13-.53.47-.69.6-.75.79-1.94-.23-1.25-1.08,0,0,.5-.57.5-.57l.25-.28.29-.25c.32-.31.85-.69,1.23-.92,2.67-1.62,5.97-1.79,8.96-1.1,2.04.63,1.03,3.6-.97,2.84h0Z"/>
        <path class="cls-6" d="m60.68,174.58l-6.2-2.63c-.79-.34-.43-1.54.41-1.4,0,0,6.64,1.15,6.64,1.15,2.18.5,1.25,3.65-.85,2.88h0Z"/>
        <path class="cls-6" d="m76.28,164.59c1.23-2.7,1.92-5.63,2.56-8.52.13-.81.92-1.37,1.73-1.17.71.14,1.45.2,2.17.25,2.29.12,4.6-.05,6.84-.57,1.5-.33,2.99-.81,4.39-1.44,1.45-.6,2.79-1.42,4.1-2.29.85-.53,1.71.66.92,1.29-5.26,4.23-12.21,6.37-18.94,5.71,0,0,1.73-1.17,1.73-1.17-.64,2.95-1.37,5.89-2.55,8.68-.09.19-.19.42-.3.64-.98,1.75-3.55.38-2.65-1.42h0Z"/>
        <path class="cls-6" d="m106.68,102.67c2.38,5.27,4.21,10.81,4.87,16.58.17,1.98-2.7,2.32-2.99.34-.02-2.79-.32-5.61-.86-8.37-.53-2.73-1.23-5.46-2.12-8.09-.25-.71.77-1.14,1.1-.46h0Z"/>
        <path class="cls-1" d="m120.18,129.61c-5.27.14-5.84-3.65-5.84-3.65-34.78,3.51-44.18-14.19-44.18-14.19l19.07-13.95s1.51,2.69,6.46,5.7c1.33.8,2.9,1.64,4.75,2.44,7.25,3.15,19.87,2.7,23.39,7.98,1.04,1.56,1.6,3.55,1.75,5.59.35,4.87-1.69,10-5.4,10.09Z"/>
        <g class="cls-3">
          <path class="cls-6" d="m120.18,129.61c-5.27.14-5.84-3.65-5.84-3.65-34.78,3.51-44.18-14.19-44.18-14.19l19.07-13.95s1.51,2.69,6.46,5.7c-8.64-.38-13.19,6.82-6.46,10.2,8.01,4.04,23.93,3.77,23.93,3.77,0,0,3.23,7.11,7.18,8.05,3.57.86,5.01-4.9,5.25-6.01.35,4.87-1.69,10-5.4,10.09Z"/>
        </g>
        <path class="cls-6" d="m70.78,111.43c2.42,3.01,5.63,5.36,8.98,7.25,6.87,3.81,14.71,5.45,22.51,5.86,3.95.24,7.93.13,11.92-.08l1.64,1.27c.35,1.49,2.04,2.31,3.57,2.36.34,0,.81.05,1.15-.03.8-.14,1.57-.78,2.16-1.72,1.76-2.99,1.85-7.26.52-10.4-.85-2.24-3.09-3.37-5.26-4.1-5.08-1.67-10.6-2.03-15.84-3.67-4.05-1.37-7.86-3.46-11.14-6.22-.98-.84-1.91-1.78-2.68-2.83-.12-.18-.22-.3-.37-.57-.42-.71-.18-1.63.53-2.06.73-.44,1.68-.16,2.09.58,1.41,2.03,3.44,3.54,5.51,4.88,2.19,1.35,4.52,2.55,6.98,3.35,2.46.77,5.1,1.26,7.77,1.77,4.86,1.05,11.87,1.81,14.65,6.61,2.31,4.25,2.27,10.06-.21,14.26-1,1.66-2.79,3.08-4.84,3.16-3.17.19-6.5-1.19-7.45-4.48-.05-.16-.06-.23-.1-.43,0,0,1.64,1.27,1.64,1.27-14.77,2.06-33.59.11-43.3-12.58-.64-.89-1.19-1.76-1.64-2.78-.15-.35,0-.76.36-.92.32-.14.68-.01.87.26h0Z"/>
        <g>
          <ellipse class="cls-5" cx="112.03" cy="122.66" rx="4.67" ry="5.34"/>
          <g class="cls-3">
            <path class="cls-9" d="m107.36,122.65c0,2.95,2.09,5.35,4.67,5.35s4.67-2.4,4.67-5.35c0-.82-.16-1.59-.45-2.29-.75,1.8-2.36,3.05-4.22,3.05s-3.47-1.25-4.22-3.05c-.29.69-.45,1.47-.45,2.29Z"/>
          </g>
          <path class="cls-6" d="m112.03,129.62c-3.47,0-6.29-3.12-6.29-6.96s2.82-6.96,6.29-6.96,6.29,3.12,6.29,6.96-2.82,6.96-6.29,6.96Zm0-10.69c-1.68,0-3.05,1.67-3.05,3.72s1.37,3.72,3.05,3.72,3.05-1.67,3.05-3.72-1.37-3.72-3.05-3.72Z"/>
        </g>
        <g>
          <path class="cls-1" d="m131.81,68.9c0,13.79-16.63,35.28-49.07,33.26-12.8-.8-22.63-3.62-29.55-8.04-10.62-6.78-14.36-17.32-11.42-30.09,0,0-19.31-24.27-13.79-34.07.48-.85,1.25-1.53,2.23-2.07,7.55-4.11,27.79.44,27.79.44,0,0,2.1-1.73,5.56-3.77,4.74-2.78,12.02-6.13,19.99-6.37,0,0,4.87-15.01,12.98-16.63.89-.18,1.81-.04,2.75.37,7.49,3.29,15.6,23.86,16.32,32.89,0,0,9.98,12.48,14.29,24.51h0c1.18,3.31,1.94,6.59,1.94,9.56Z"/>
          <g class="cls-3">
            <path class="cls-6" d="m98.82,22.36s-7.4-2.74-15.27-4.15c0,0,4.87-15.01,12.98-16.63.89-.18,1.81-.04,2.75.37-2.78,3.01-6.59,9.69-.45,20.41Z"/>
          </g>
          <path class="cls-8" d="m91.66,58.49c0,19.02-17.02,34.56-38.47,35.63-10.62-6.78-14.36-17.32-11.42-30.09,0,0-19.31-24.27-13.79-34.07,4.19-7.44,30.01-1.62,30.01-1.62,0,0,2.1-1.73,5.56-3.77,16.32,4.68,28.1,18.1,28.1,33.92Z"/>
          <g class="cls-2">
            <path class="cls-1" d="m40.98,68.72s4.5-34.29,21.44-43.46c7.74-4.19,20.23-10.59,31.42-4.97,0,0-16.56-.07-27.76,7.61-18.39,12.61-25.1,40.82-25.1,40.82Z"/>
          </g>
          <path class="cls-6" d="m86.88,103.79c-1.4,0-2.81-.04-4.23-.13-12.73-.8-22.91-3.58-30.26-8.27-10.86-6.93-15.08-17.64-12.23-30.99-1.3-1.69-5.19-6.88-8.65-12.98-5.77-10.17-7.39-17.63-4.83-22.19,2.08-3.69,7.97-5.11,18-4.36,5.75.43,11.07,1.47,12.95,1.86.87-.67,2.67-1.98,5.17-3.45,4.67-2.75,11.8-6.04,19.67-6.53,1.29-3.52,6.09-15.11,13.77-16.65,1.8-.36,3.69.19,5.62,1.65,7.15,5.4,14.28,23.52,15.2,32.5,2.26,2.89,16.27,21.35,16.27,34.65,0,7.32-4.12,15.56-11.01,22.03-8.9,8.36-21.36,12.85-35.42,12.85ZM39.99,27.68c-5.17,0-9.44.8-10.69,3.03-4.12,7.31,8.46,25.86,13.66,32.4.28.36.39.83.29,1.27-2.84,12.33.88,22.17,10.76,28.48,6.91,4.41,16.62,7.04,28.83,7.8,14.96.93,28.24-3.3,37.41-11.91,6.21-5.83,10.07-13.44,10.07-19.85,0-13.1-15.73-32.93-15.89-33.13-.19-.23-.3-.52-.32-.82-.65-8.1-7.48-25.84-14.05-30.8-1.21-.92-2.3-1.29-3.22-1.1-5.93,1.19-10.56,11.68-11.84,15.62-.2.6-.75,1.02-1.38,1.04-7.65.22-14.7,3.47-19.27,6.16-3.3,1.94-5.35,3.62-5.37,3.64-.36.3-.83.41-1.29.31-5.04-1.13-11.92-2.13-17.68-2.13Z"/>
          <path class="cls-6" d="m41.78,65.54c-.1,0-.19,0-.29-.03-.81-.16-1.34-.95-1.18-1.76.5-2.52,1.08-4.99,1.72-7.35,2.2-8.05,5.21-15.22,8.96-21.29.01-.02.03-.04.04-.07,3.25-5.26,5.85-7.7,5.96-7.8.61-.56,1.56-.53,2.12.08.56.61.53,1.56-.08,2.12-.02.02-2.41,2.28-5.41,7.11-.01.02-.02.04-.04.07-3.61,5.84-6.53,12.76-8.65,20.57-.63,2.29-1.19,4.69-1.67,7.14-.14.72-.77,1.21-1.47,1.21Z"/>
          <path class="cls-6" d="m115.59,36.34c-.4,0-.79-.16-1.09-.47-2.06-2.17-4.23-4.15-6.43-5.89-4.66-3.71-9.61-6.49-14.72-8.27-5.85-2.04-9.73-2-9.77-2-.82.02-1.51-.65-1.53-1.48-.01-.83.65-1.51,1.48-1.53.18,0,4.46-.05,10.81,2.17,5.43,1.89,10.68,4.84,15.6,8.75,2.31,1.83,4.58,3.91,6.74,6.18.57.6.55,1.55-.05,2.12-.29.28-.66.41-1.04.41Z"/>
          <path class="cls-7" d="m109,28.8c-2.61-2.08-5.16-3.75-7.58-5.09h0c-2.74-1.52-5.3-2.62-7.58-3.42.81-4.05,2.43-10.73,4.31-11.01.82-.12,2.14.88,3.6,2.65,2.91,3.53,6.34,10.13,7.26,16.87Z"/>
          <path class="cls-6" d="m109,30.3c-.33,0-.66-.11-.94-.33-4.66-3.7-9.61-6.48-14.72-8.27-.71-.25-1.13-.98-.98-1.71.39-1.95,1.02-4.77,1.8-7.1,1.12-3.35,2.24-4.87,3.76-5.1.83-.13,1.72.18,2.71.92,3.26,2.44,8.64,10.93,9.85,19.88.08.61-.21,1.2-.75,1.51-.23.13-.49.2-.74.2Zm-13.43-10.98c3.84,1.46,7.58,3.45,11.18,5.93-2.06-7.63-6.71-13.7-8.34-14.43-.54.6-1.64,2.93-2.84,8.49Z"/>
          <path class="cls-7" d="m52.3,35.83h0c-2.02,3.26-4.3,7.65-6.37,13.28-.86,2.34-1.69,4.9-2.45,7.68-2.71-2.02-10.59-14.81-10.73-20.12-.02-.81.14-1.44.51-1.84,2.88-3.02,19.04,1,19.04,1Z"/>
          <path class="cls-6" d="m43.47,58.3c-.32,0-.63-.1-.9-.3-2.88-2.14-10.8-14.8-11.31-20.84-.12-1.47.18-2.61.91-3.36,1-1.05,3.33-2.3,11.9-1.08,4.42.63,8.42,1.62,8.59,1.66.67.17,1.14.77,1.14,1.46h0c0,.28-.08.56-.22.79-3.61,5.84-6.53,12.76-8.65,20.57-.13.48-.49.86-.96,1.02-.16.06-.33.08-.49.08Zm-5.49-23.09c-2.89,0-3.55.57-3.64.66-.36.49-.06,3.53,3.21,9.72,1.76,3.34,3.74,6.38,5.21,8.25,1.9-6.28,4.31-11.99,7.19-17-1.57-.34-3.9-.81-6.33-1.15-2.47-.35-4.3-.47-5.64-.47Z"/>
          <ellipse class="cls-6" cx="79.4" cy="64.76" rx="5.93" ry="8.23" transform="translate(-7.49 10.46) rotate(-7.2)"/>
          <ellipse class="cls-1" cx="77.71" cy="63.37" rx="2.1" ry="2.92" transform="translate(-7.33 10.23) rotate(-7.2)"/>
          <g class="cls-4">
            <ellipse class="cls-1" cx="81.52" cy="67.81" rx="2.34" ry="1.69" transform="translate(7.12 143.36) rotate(-85.19)"/>
          </g>
          <ellipse class="cls-6" cx="113.53" cy="55.17" rx="5.45" ry="7.56" transform="translate(-6.02 14.66) rotate(-7.2)"/>
          <ellipse class="cls-1" cx="111.98" cy="53.9" rx="1.93" ry="2.68" transform="translate(-5.87 14.45) rotate(-7.2)"/>
          <g class="cls-4">
            <ellipse class="cls-1" cx="115.48" cy="57.97" rx="2.15" ry="1.55" transform="translate(48.03 168.19) rotate(-85.19)"/>
          </g>
          <g>
            <path class="cls-6" d="m104.88,70.97c-.44.38-1.02.56-1.6.49-1.97-.23-6.52-1.02-6.41-3.29.14-2.91,9.48-5.01,10.75-3.04,1.31,2.03-1.38,4.69-2.73,5.85Z"/>
            <path class="cls-6" d="m104.73,75.16c-.64,0-1.22-.41-1.42-1.06l-1.04-3.47c-.23-.78.21-1.61.99-1.84.78-.23,1.61.21,1.84.99l1.04,3.47c.23.78-.21,1.61-.99,1.84-.14.04-.28.06-.42.06Z"/>
            <path class="cls-6" d="m93.45,74.56c.62,3.41,3.81,3.59,6.53,2.28,1.5-.78,2.74-2.13,3.37-3.69.21-.69.95-1.07,1.63-.84,0,0,.68.23.68.23,1.57,1.3,3.76,1.95,5.77,1.4,2.23-.49,2.37-3.08,1.84-4.97-.13-.38.09-.8.48-.9.35-.09.7.09.83.42.26.67.42,1.29.52,1.98.98,6.55-7.15,7.41-11.29,4.37,0,0,2.3-.62,2.3-.62-1.67,3.65-5.71,6.09-9.72,5.58-2.61-.24-4.55-2.54-4.71-5.1-.05-1.18,1.64-1.3,1.78-.14h0Z"/>
          </g>
        </g>
        <g class="cls-3">
          <path class="cls-6" d="m131.81,68.9c0,13.79-16.63,35.28-49.07,33.26-12.8-.8-22.63-3.62-29.55-8.04-10.62-6.78-14.36-17.32-11.42-30.09,0,0-19.31-24.27-13.79-34.07.48-.85,1.25-1.53,2.23-2.07,1.34,11.74,13.74,27.2,13.74,27.2-4.13,28.39,31.18,40.96,59.5,35.18,28-5.71,26.46-30.38,26.42-30.93,1.18,3.3,1.94,6.58,1.94,9.55Z"/>
        </g>
        <g class="cls-3">
          <path class="cls-6" d="m52.3,35.83h0c-2.02,3.26-4.3,7.65-6.37,13.28-1.05-10.81-13.18-12.43-13.18-12.43h0c-.02-.81.14-1.45.51-1.85,2.88-3.02,19.04,1,19.04,1Z"/>
        </g>
        <g class="cls-3">
          <path class="cls-6" d="m101.42,23.71c-2.74-1.52-5.3-2.62-7.58-3.42.81-4.05,2.43-10.73,4.31-11.01.82-.12,2.14.88,3.6,2.65,0,0-3.73,5.67-.33,11.78Z"/>
        </g>
      </g>
    </g>
  </g>
</svg>