<?xml version="1.0" encoding="UTF-8"?>
<svg id="Capa_2" data-name="Capa 2" xmlns="http://www.w3.org/2000/svg" viewBox="0 0 367.65 409.79">
  <defs>
    <style>
      .cls-1 {
        fill: #fff;
      }

      .cls-2 {
        fill: #1d1d1b;
        font-family: AgencyFB-Reg, 'Agency FB';
        font-size: 60px;
      }

      .cls-3 {
        fill: #363334;
      }

      .cls-4 {
        fill: #f9d6b0;
      }

      .cls-5 {
        fill: #ee9e7d;
      }

      .cls-6 {
        fill: #c69451;
      }

      .cls-7 {
        fill: #f9b76a;
      }

      .cls-8 {
        fill: #202020;
      }

      .cls-9 {
        fill: #ba6b41;
      }
    </style>
  </defs>
  <g id="Capa_1-2" data-name="Capa 1">
    <g>
      <g>
        <path class="cls-7" d="m335.27,210.78c4.56-21.9,3.72-44.91-2.41-66.43-4.52-15.86-11.82-30.8-16.64-46.57-4.82-15.77-7.04-33.11-1.28-48.57,5.76-15.45,21.29-28.09,37.68-26.23,3.3.37,6.76,1.28,9.86.08,5.07-1.97,6.51-9.11,3.87-13.86-2.64-4.75-8.04-7.33-13.36-8.43-23.5-4.87-46.06,13.93-56.65,35.46-11.99,24.36-10.65,58.26.23,83.13,9.99,22.84,20.56,31.59,19.98,52.82-.1,3.68,1.43,21.41,0,32.83l18.71,5.76Z"/>
        <path class="cls-6" d="m232.33,236.43c34.26,22.84,17.13,87.08,17.13,87.08,0,0-14.27,4.28-8.56,14.27,5.71,9.99,18.56,2.86,24.27-7.14,5.71-9.99,29.98-52.82,35.69-81.37l-68.52-12.85Z"/>
        <path class="cls-6" d="m79.59,227.86s5.63,37,2.75,65.3c-2.88,28.3-5.89,31.66-5.89,31.66,0,0-12.75.72-13.52,9.71-.77,9,16.09,13.16,25.67,1.75,9.59-11.41,27.75-80.74,26.67-99.86l-35.69-8.56Z"/>
        <path class="cls-7" d="m53.9,196.46s8.56,24.27,31.4,35.69c22.84,11.42,35.69,18.56,35.69,18.56,0,0,14.27,22.84,22.84,49.96,8.56,27.12,7.14,31.4,7.14,31.4,0,0-11.42,5.71-8.56,14.27,2.85,8.56,19.98,5.71,24.27-8.56,4.28-14.27,0-71.37-8.57-88.5,0,0,54.24-9.99,89.93-5.71,0,0,11.42,19.98,38.54,24.27,22.78,3.6,11.42,69.95,11.42,69.95,0,0-14.27,4.28-8.56,14.27,5.71,9.99,18.56,2.85,24.27-7.14s19.98-57.1,25.69-85.65c5.71-28.55,8.56-59.95-14.27-89.93-22.84-29.98-65.66-29.98-108.49-18.56-42.82,11.42-77.08,18.56-88.5,1.43-11.42-17.13-79.94,21.41-74.23,44.25Z"/>
        <path class="cls-6" d="m149.54,162.2c-15.17,1.01-15.75-1.49-21.41-9.99-11.42-17.13-79.94,21.41-74.23,44.25,0,0,.21.58.64,1.61,9,1.92,18.63,2.8,28.48,1.84,42.35-4.13,62.25-23.43,66.53-37.71Z"/>
        <path class="cls-9" d="m174.41,184.81c-1.18,3.8-2.75,7.64-2.42,11.61.33,3.97,3.42,8.08,7.39,7.85,2.73-.16,4.94-2.24,6.62-4.4,4.61-5.9,7.18-13.16,8.76-20.48,1.66-7.71,2.26-15.63,1.85-23.5-7.36,1.77-14.35,3.27-20.88,4.39.7,7.57,1.39,15.73-1.32,24.52Z"/>
        <path class="cls-9" d="m210.58,152.37c1.37,16.44-.95,32.95-2.8,49.3-.6,5.36.71,12.92,6.11,12.84,2.67-.04,4.78-2.21,6.39-4.33,9.85-13,13.14-30.05,12.26-46.34-.28-5.19-.84-10.76-1.72-16.41-4.71.96-9.45,2.08-14.19,3.35-2.04.54-4.05,1.07-6.05,1.6Z"/>
        <path class="cls-9" d="m247.82,144.72c3.74,19.49,2.45,39.98-4.07,58.74-.71,2.05-1.5,4.2-1.13,6.34.71,4.16,5.76,6.46,9.87,5.49,4.1-.97,7.24-4.29,9.55-7.83,5.5-8.45,7.52-18.65,8.78-28.65,1.45-11.54,2.01-23.19,1.7-34.82-7.92-.53-16.2-.23-24.7.73Z"/>
        <path class="cls-9" d="m282.17,194.1c-.12,1.65-.2,3.42.66,4.83,1.44,2.37,5.04,2.6,7.4,1.14,2.36-1.46,3.74-4.07,4.82-6.62,5.5-12.98,6.49-28.36,4.65-43.5-4.7-1.94-9.68-3.39-14.89-4.4.78,16.2-1.47,32.43-2.65,48.55Z"/>
        <g>
          <path class="cls-7" d="m94.9,80.91c2.76-10.78,7.95-20.94,15.08-29.48,4.31-5.17,10.36-10.1,17.01-9.1,8.63,20.32,9.39,53.17.61,80.2l-32.7-41.62Z"/>
          <path class="cls-5" d="m126.99,42.33s-.07,0-.1-.01c-8,2.73-11.78,23.6-13.04,36.63l14.11,31.72c.43-1.3,6.54-9.75,6.12-18.68,2.73-20.2-1.63-36.81-7.09-49.66Z"/>
          <path class="cls-7" d="m52.78,84.39c-5.25-10.01-12.77-18.82-21.82-25.59-5.47-4.1-12.6-7.55-18.94-5-3.76,22.1,3.19,54.74,18.21,79.39l22.56-48.79Z"/>
          <path class="cls-5" d="m12.02,53.8s.07-.02.1-.04c7.98,1.88,17.18,20.55,21.47,33.14l-6.5,34.65c-.73-1.18-8.75-8.1-10.43-17.03-7.44-19.32-7.02-36.76-4.64-50.73Z"/>
          <path class="cls-7" d="m71.45,68.03c-33.5,2.18-56.83,16.16-57.68,45.97-.75,26.27-13.77,50.97-13.77,50.97,0,0,38.8,30.55,81.58,26.38,51.85-5.06,80.07-40.89,80.07-40.89,0,0-19.54-24.32-23.06-40.31-5.84-26.52-22.37-45.02-67.14-42.11Z"/>
          <g>
            <circle class="cls-1" cx="43.78" cy="123.74" r="13.33" transform="translate(-74.67 67.2) rotate(-45)"/>
            <circle class="cls-3" cx="43.79" cy="123.74" r="9.33" transform="translate(-75.51 69) rotate(-45.86)"/>
            <circle class="cls-1" cx="47.1" cy="119.16" r="5" transform="translate(-79.5 138.89) rotate(-77.29)"/>
          </g>
          <g>
            <circle class="cls-1" cx="108.9" cy="115.46" r="13.33" transform="translate(-7.17 7.21) rotate(-3.67)"/>
            <circle class="cls-3" cx="108.9" cy="115.46" r="9.33" transform="translate(-3.2 3.1) rotate(-1.61)"/>
            <circle class="cls-1" cx="112.22" cy="110.88" r="5" transform="translate(-35.3 54.98) rotate(-23.9)"/>
          </g>
          <path class="cls-6" d="m30.02,103.72c-.97-3.43,12.6-11.12,15.38-7.62,2.78,3.5-14,12.51-15.38,7.62Z"/>
          <path class="cls-6" d="m119.21,92.05c-.25-3.55-15.63-6.19-17.05-1.95-1.43,4.23,17.42,7.02,17.05,1.95Z"/>
          <path class="cls-4" d="m25.7,148.84c-.49-3.04,2.67-6.08,7.04-6.78,4.38-.7,8.32,1.2,8.81,4.25.49,3.04-2.67,6.08-7.04,6.78-4.38.7-8.32-1.2-8.81-4.25Z"/>
          <path class="cls-4" d="m115.84,137.98c-.49-3.04,2.67-6.08,7.04-6.78,4.38-.7,8.32,1.2,8.81,4.25.49,3.04-2.67,6.08-7.04,6.78-4.38.7-8.32-1.2-8.81-4.25Z"/>
          <g>
            <path class="cls-9" d="m86.01,91.35c3.66-.19,3.09-13.69,2.21-23.35-2.51-.18-5.14-.27-7.89-.27.46,9.28,1.8,23.82,5.69,23.62Z"/>
            <path class="cls-9" d="m59.32,69.42c-3.04.52-5.97,1.16-8.77,1.92.62,10.14,2.12,23.73,5.72,24.43,3.53.69,3.56-14.47,3.05-26.35Z"/>
            <path class="cls-9" d="m75.86,67.81c-1.44.05-2.91.12-4.41.22-1.89.12-3.74.29-5.57.49.52,11.64,2.02,32.78,6.2,33.59,4.12.8,4.12-21.47,3.78-34.3Z"/>
          </g>
          <path class="cls-4" d="m72.1,123.94c-13.99,5.25-21.12,23.76-14.27,37.04,3.72,7.2,11.03,12.55,19.08,13.41,8.05.86,16.56-3.02,20.76-9.95,2.79-4.59,3.63-10.11,3.71-15.48.07-4.66-.42-9.42-2.35-13.66-5.49-12.1-23.59-15.99-33.57-7.21l6.63-4.16Z"/>
          <g>
            <rect class="cls-8" x="78.38" y="145.64" width="2.22" height="13.36" transform="translate(-14.93 8.78) rotate(-5.78)"/>
            <path class="cls-8" d="m64.76,153.98c1.07.94,2.25,1.67,3.49,2.25,1.23.59,2.53.99,3.83,1.29,2.63.55,5.33.61,8.02.3,2.69-.31,5.31-.97,7.75-2.1,1.2-.59,2.38-1.27,3.44-2.12,1.08-.84,2.07-1.81,2.9-2.97-.39,1.39-1.2,2.64-2.14,3.76-.96,1.1-2.1,2.07-3.35,2.87-2.53,1.55-5.43,2.45-8.34,2.78-2.91.33-5.94.11-8.75-.83-1.4-.49-2.72-1.18-3.91-2.04-1.17-.88-2.24-1.91-2.93-3.18Z"/>
            <g>
              <path class="cls-9" d="m78.16,138.47s-7.3-5.17-10.75-1.14c-3.79,4.43,6.92,9.89,12.18,9.16,4.76-.66,13.2-9.04,8.74-11.96-3.78-2.48-10.17,3.93-10.17,3.93Z"/>
              <path class="cls-5" d="m69.63,138.12c-2.5,1.91,5.66,6.28,6.9,4.16,1.24-2.12-4.63-5.9-6.9-4.16Z"/>
            </g>
          </g>
        </g>
      </g>
      <text class="cls-2" transform="translate(43.01 397.78)"><tspan x="0" y="0">Adopta un gato</tspan></text>
    </g>
  </g>
</svg>